# xmcd CD database file
#
# Track frame offsets:
#	150
#	15457
#	30700
#	45912
#
# Disc length: 859 seconds
#
# Revision: 3
# Processed by: cddbd v1.5.1PL2 Copyright (c) Steve Scherf et al.
# Submitted via: CDex 1.51
#
DISCID=20035904
DTITLE=Sun21 - El Cuarto de Tula
DYEAR=1900
DGENRE=Salsa
TTITLE0=El Cuarto de Tula
TTITLE1=Toda mi vida
TTITLE2=Si llegara el amor a mí
TTITLE3=El Cuarto de Tula (Remix)
EXTD=
EXTT0=
EXTT1=
EXTT2=
EXTT3=
PLAYORDER=
